HIERARCHY
ROOT joint_Root
{
	OFFSET 0.0 0.0 0.0
	CHANNELS 6 Xposition Yposition Zposition Zrotation Xrotation Yrotation 
	JOINT Hips
	{
		OFFSET 4.5925 91.4895 -427.239
		CHANNELS 6 Xposition Yposition Zposition Zrotation Xrotation Yrotation 
		JOINT Spine
		{
			OFFSET 15.7357 0.0 0.0
			CHANNELS 6 Xposition Yposition Zposition Zrotation Xrotation Yrotation 
			JOINT Chest
			{
				OFFSET 8.98455 -0.406207 0.0
				CHANNELS 6 Xposition Yposition Zposition Zrotation Xrotation Yrotation 
				JOINT Neck
				{
					OFFSET 16.3773 0.0 0.0
					CHANNELS 6 Xposition Yposition Zposition Zrotation Xrotation Yrotation 
					JOINT Head
					{
						OFFSET 6.45672 0.0 0.0
						CHANNELS 6 Xposition Yposition Zposition Zrotation Xrotation Yrotation 
						End Site
						{
							OFFSET 0.0 0.0 0.0
						}
					}
				}
				JOINT Shoulder_L
				{
					OFFSET 12.9942 -0.242716 4.98039
					CHANNELS 6 Xposition Yposition Zposition Zrotation Xrotation Yrotation 
					JOINT UpperArm_L
					{
						OFFSET 5.34809 0.0 0.0
						CHANNELS 6 Xposition Yposition Zposition Zrotation Xrotation Yrotation 
						JOINT LowerArm_L
						{
							OFFSET 24.3286 1.87007e-05 0.0
							CHANNELS 6 Xposition Yposition Zposition Zrotation Xrotation Yrotation 
							JOINT Hand_L
							{
								OFFSET 22.2916 0.0 0.0
								CHANNELS 6 Xposition Yposition Zposition Zrotation Xrotation Yrotation 
								End Site
								{
									OFFSET 0.0 0.0 0.0
								}
							}
						}
					}
				}
				JOINT Shoulder_R
				{
					OFFSET 12.9945 -0.242716 -4.98039
					CHANNELS 6 Xposition Yposition Zposition Zrotation Xrotation Yrotation 
					JOINT UpperArm_R
					{
						OFFSET -5.34813 0.0 0.0
						CHANNELS 6 Xposition Yposition Zposition Zrotation Xrotation Yrotation 
						JOINT LowerArm_R
						{
							OFFSET -24.3289 0.000322201 0.0
							CHANNELS 6 Xposition Yposition Zposition Zrotation Xrotation Yrotation 
							JOINT Hand_R
							{
								OFFSET -22.2915 -0.000108084 0.0
								CHANNELS 6 Xposition Yposition Zposition Zrotation Xrotation Yrotation 
								End Site
								{
									OFFSET 0.0 0.0 0.0
								}
							}
						}
					}
				}
			}
		}
		JOINT UpperLeg_L
		{
			OFFSET -2.19248 -6.46944 0.0
			CHANNELS 6 Xposition Yposition Zposition Zrotation Xrotation Yrotation 
			JOINT LowerLeg_L
			{
				OFFSET 39.0811 0.0 -1.23785e-05
				CHANNELS 6 Xposition Yposition Zposition Zrotation Xrotation Yrotation 
				JOINT Foot_L
				{
					OFFSET 40.9854 0.0 -1.26872e-05
					CHANNELS 6 Xposition Yposition Zposition Zrotation Xrotation Yrotation 
					JOINT Toes_L
					{
						OFFSET 11.7543 0.0 0.0
						CHANNELS 6 Xposition Yposition Zposition Zrotation Xrotation Yrotation 
						End Site
						{
							OFFSET 0.0 0.0 0.0
						}
					}
				}
			}
		}
		JOINT UpperLeg_R
		{
			OFFSET -2.19251 6.46944 0.0
			CHANNELS 6 Xposition Yposition Zposition Zrotation Xrotation Yrotation 
			JOINT LowerLeg_R
			{
				OFFSET -39.0811 -0.00228153 -0.0401928
				CHANNELS 6 Xposition Yposition Zposition Zrotation Xrotation Yrotation 
				JOINT Foot_R
				{
					OFFSET -40.9854 0.0 0.0
					CHANNELS 6 Xposition Yposition Zposition Zrotation Xrotation Yrotation 
					JOINT Toes_R
					{
						OFFSET -11.7543 0.0 0.0
						CHANNELS 6 Xposition Yposition Zposition Zrotation Xrotation Yrotation 
						End Site
						{
							OFFSET 0.0 0.0 0.0
						}
					}
				}
			}
		}
	}
}
MOTION
Frames:	5
Frame Time:	0.0333333
0.000000 0.000000 0.000000 0.000000 0.000000 -0.000000 -0.855682 83.043900 1.378740 88.497100 -2.839350 11.662400 15.735700 0.000005 -0.000001 87.104800 80.068200 -87.100100 8.984550 -0.406207 -0.000000 12.073500 -0.994259 0.114614 16.377300 -0.000001 -0.000001 -2.274120 -3.196630 0.996734 6.456720 -0.000001 -0.000000 -9.119670 -2.909670 2.319040 12.994200 -0.242716 4.980390 -91.583300 5.123970 -72.803200 5.348090 -0.000007 -0.000001 -64.603400 18.713200 -20.009500 24.328600 0.000019 0.000005 6.750630 17.545900 -21.435800 22.291600 -0.000001 0.000005 12.338500 5.046200 6.319950 12.994500 -0.242716 -4.980390 88.201900 9.783680 -79.533100 -5.348130 -0.000001 -0.000004 -66.330100 5.669060 -18.977500 -24.328900 0.000322 -0.000009 -2.827970 -11.287700 -14.159500 -22.291500 -0.000108 -0.000004 12.068400 5.251250 1.403360 -2.192480 -6.469440 -0.000000 -172.878000 -10.901100 -11.570900 39.081100 -0.000007 -0.000012 -0.560288 0.330121 59.494800 40.985400 -0.000006 -0.000013 0.341506 3.848750 -85.877700 11.754300 -0.000000 0.000003 -0.000619 -0.004753 -16.749700 -2.192510 6.469440 -0.000001 178.127000 10.816000 168.089000 -39.081100 -0.002282 -0.040193 0.078068 -0.044080 59.510900 -40.985400 0.000008 0.000006 6.169040 2.070030 -85.284700 -11.754300 -0.000006 -0.000006 -1.293510 -1.629200 -16.590100
0.000000 0.000000 0.000000 0.000000 0.000000 -0.000000 -0.949509 85.012900 2.676470 88.633900 -1.549190 11.856700 15.735700 0.000005 -0.000001 86.085500 81.448000 -86.178800 8.984550 -0.406207 -0.000000 9.298540 -1.162410 -0.091813 16.377300 -0.000001 -0.000001 0.763933 -3.206340 0.946037 6.456720 -0.000001 -0.000000 -6.197260 -2.623030 2.710770 12.994200 -0.242716 4.980390 -91.320300 3.972170 -71.596700 5.348090 -0.000007 -0.000001 -62.207000 1.772270 -20.723500 24.328600 0.000019 0.000005 4.173080 12.384000 -18.788100 22.291600 -0.000001 0.000005 13.005000 4.897250 9.429030 12.994500 -0.242716 -4.980390 88.077200 8.688230 -77.469500 -5.348130 -0.000001 -0.000004 -64.676100 -12.446200 -19.096500 -24.328900 0.000322 -0.000009 -3.015300 -14.949600 -11.537700 -22.291500 -0.000108 -0.000004 14.292500 5.073970 5.697580 -2.192480 -6.469440 -0.000000 -173.074000 -9.791840 -7.452610 39.081100 -0.000007 -0.000012 -0.511186 0.384349 53.062500 40.985400 -0.000006 -0.000013 0.141967 4.136780 -83.489600 11.754300 -0.000000 0.000003 -0.000549 -0.004303 -16.734200 -2.192510 6.469440 -0.000001 177.356000 12.335400 172.464000 -39.081100 -0.002282 -0.040193 0.067245 -0.047622 53.351800 -40.985400 0.000008 0.000006 6.054780 2.881150 -82.767600 -11.754300 -0.000006 -0.000006 -1.463890 -1.837520 -16.951200
0.000000 0.000000 0.000000 0.000000 0.000000 -0.000000 -1.013650 87.279700 3.720740 88.897500 -0.694486 10.367200 15.735700 0.000005 -0.000001 83.771700 83.550400 -84.011800 8.984550 -0.406207 -0.000000 5.055410 -1.390900 -0.418329 16.377300 -0.000001 -0.000001 4.663420 -3.309600 1.163290 6.456720 -0.000001 -0.000000 -4.204460 -2.461330 2.934770 12.994200 -0.242716 4.980390 -90.665700 1.909260 -70.772000 5.348090 -0.000007 -0.000001 -57.800600 -16.084300 -24.495400 24.328600 0.000019 0.000005 1.910850 5.551460 -19.034200 22.291600 -0.000001 0.000005 16.787400 4.783090 11.633200 12.994500 -0.242716 -4.980390 88.267400 6.630430 -75.318700 -5.348130 -0.000001 -0.000004 -62.204000 -28.615000 -23.519200 -24.328900 0.000322 -0.000009 -9.226420 -31.570500 -17.229400 -22.291500 -0.000108 -0.000004 22.562300 5.157300 3.781330 -2.192480 -6.469440 -0.000000 -173.712000 -9.222020 -4.316300 39.081100 -0.000007 -0.000012 -0.398683 0.401457 44.802200 40.985400 -0.000006 -0.000013 -0.179823 4.242960 -79.944000 11.754300 -0.000000 0.000003 -0.000334 -0.002848 -16.683300 -2.192510 6.469440 -0.000001 177.019000 13.411100 175.394000 -39.081100 -0.002282 -0.040193 0.051045 -0.046428 45.824100 -40.985400 0.000008 0.000006 5.774290 3.684580 -78.782400 -11.754300 -0.000006 -0.000006 -1.564030 -1.927920 -17.771600
0.000000 0.000000 0.000000 0.000000 0.000000 -0.000000 -1.031940 89.064800 4.332660 89.008200 -0.493845 8.082830 15.735700 0.000005 -0.000001 78.031300 85.615600 -78.313600 8.984550 -0.406207 -0.000000 0.808298 -1.800630 -0.551429 16.377300 -0.000001 -0.000001 7.427340 -3.140720 1.680510 6.456720 -0.000001 -0.000000 -3.121420 -1.677660 2.713560 12.994200 -0.242716 4.980390 -89.954600 -0.127747 -70.446500 5.348090 -0.000007 -0.000001 -53.724300 -33.369400 -31.841800 24.328600 0.000019 0.000005 -4.484620 -10.778300 -22.747100 22.291600 -0.000001 0.000005 20.627200 4.798560 11.346200 12.994500 -0.242716 -4.980390 88.652200 4.625680 -73.734900 -5.348130 -0.000001 -0.000004 -63.364400 -40.927900 -36.090300 -24.328900 0.000322 -0.000009 -21.442900 -42.188500 -30.317900 -22.291500 -0.000108 -0.000004 25.671900 5.334760 -0.924144 -2.192480 -6.469440 -0.000000 -174.550000 -9.812630 -3.109760 39.081100 -0.000007 -0.000012 0.012675 -0.016087 38.231900 40.985400 -0.000006 -0.000013 2.820420 3.737310 -76.677000 11.754300 -0.000000 0.000003 -1.683870 -2.199760 -15.769000 -2.192510 6.469440 -0.000001 177.189000 14.148000 176.416000 -39.081100 -0.002282 -0.040193 0.036597 -0.040399 39.512300 -40.985400 0.000008 0.000006 5.610430 4.711310 -74.561300 -11.754300 -0.000006 -0.000006 -1.810510 -2.176420 -18.923900
0.000000 0.000000 0.000000 0.000000 0.000000 -0.000000 -0.959463 90.048900 4.706630 88.943600 -0.966338 6.130780 15.735700 0.000005 -0.000001 69.601900 87.036200 -69.705300 8.984550 -0.406207 -0.000000 -2.212450 -2.056440 -0.246677 16.377300 -0.000001 -0.000001 7.944400 -2.606520 2.085940 6.456720 -0.000001 -0.000000 -2.966740 -1.171090 2.256500 12.994200 -0.242716 4.980390 -89.116700 -2.494020 -70.489700 5.348090 -0.000007 -0.000001 -46.442400 -44.674700 -38.984100 24.328600 0.000019 0.000005 -6.046640 -11.350700 -28.292600 22.291600 -0.000001 0.000005 20.412700 4.967190 8.006100 12.994500 -0.242716 -4.980390 89.441700 1.957740 -74.081300 -5.348130 -0.000001 -0.000004 -59.889600 -46.382900 -48.960400 -24.328900 0.000322 -0.000009 -25.153000 -35.278000 -39.114200 -22.291500 -0.000108 -0.000004 22.665800 5.418300 -3.550790 -2.192480 -6.469440 -0.000000 -174.642000 -10.759500 -2.838620 39.081100 -0.000007 -0.000012 0.005583 -0.008228 34.153300 40.985400 -0.000006 -0.000013 2.702970 4.473240 -74.050600 11.754300 -0.000000 0.000003 -1.699780 -2.201140 -16.513600 -2.192510 6.469440 -0.000001 177.401000 14.760300 176.796000 -39.081100 -0.002282 -0.040193 0.028344 -0.035620 35.120700 -40.985400 0.000008 0.000006 5.665450 6.142850 -72.415200 -11.754300 -0.000006 -0.000006 -1.726850 -2.058500 -19.194800
